<svg width="153" height="49" viewBox="0 0 153 49" fill="none" xmlns="http://www.w3.org/2000/svg">
<path fill-rule="evenodd" clip-rule="evenodd" d="M11.3719 6.68936C8.78581 6.68936 6.68936 8.78581 6.68936 11.3719L6.68936 31.6407L5.95312e-06 31.6407L2.1396e-06 11.3719C9.57932e-07 5.09138 5.09138 -9.57931e-07 11.3719 -2.1396e-06L40.4037 -2.52579e-06L44.317 6.68935L11.3719 6.68936Z" fill="#4BA5F2"/>
<path fill-rule="evenodd" clip-rule="evenodd" d="M37.8556 41.3414C40.4417 41.3414 42.5382 39.245 42.5382 36.6589L42.5382 16.3901L49.2275 16.3901L49.2275 36.6589C49.2275 42.9394 44.1362 48.0308 37.8556 48.0308L8.82382 48.0308L4.91054 41.3414L37.8556 41.3414Z" fill="#E7692C"/>
<path fill-rule="evenodd" clip-rule="evenodd" d="M14.8659 14.8615L49.2492 14.8615L44.8676 8.17211L11.7219 8.17212C9.76382 8.17212 8.17651 9.75944 8.17651 11.7175L8.17652 31.6518L14.8659 31.6518L14.8659 14.8615Z" fill="#EFBC41"/>
<path fill-rule="evenodd" clip-rule="evenodd" d="M34.3873 33.1693L0.00400784 33.1693L4.38554 39.8587L37.5313 39.8587C39.4894 39.8587 41.0767 38.2714 41.0767 36.3133L41.0767 16.379L34.3873 16.379L34.3873 33.1693Z" fill="#EB88EF"/>
<path d="M138.176 16.3489H143.143V19.881H143.217C143.462 19.2923 143.793 18.7527 144.21 18.2621C144.627 17.747 145.105 17.3178 145.645 16.9744C146.185 16.6065 146.761 16.3244 147.374 16.1282C147.988 15.9319 148.625 15.8338 149.288 15.8338C149.631 15.8338 150.011 15.8952 150.428 16.0178V20.8744C150.183 20.8253 149.889 20.7885 149.545 20.764C149.202 20.715 148.871 20.6904 148.552 20.6904C147.595 20.6904 146.786 20.8499 146.123 21.1687C145.461 21.4876 144.922 21.9291 144.505 22.4933C144.112 23.0329 143.83 23.6706 143.658 24.4065C143.487 25.1423 143.401 25.9395 143.401 26.798V35.3706H138.176V16.3489Z" fill="#F4F5EC"/>
<path d="M132.058 23.8178C131.812 22.4932 131.371 21.4876 130.733 20.8008C130.12 20.114 129.175 19.7706 127.9 19.7706C127.066 19.7706 126.367 19.9178 125.803 20.2121C125.263 20.4819 124.822 20.8253 124.478 21.2423C124.159 21.6593 123.926 22.1008 123.779 22.5668C123.657 23.0329 123.583 23.4499 123.559 23.8178H132.058ZM123.559 27.1291C123.632 28.8215 124.061 30.0479 124.846 30.8083C125.631 31.5687 126.759 31.9489 128.231 31.9489C129.286 31.9489 130.193 31.6913 130.954 31.1762C131.714 30.6366 132.18 30.0725 132.352 29.4838H136.951C136.215 31.7649 135.087 33.3961 133.566 34.3772C132.045 35.3583 130.206 35.8489 128.047 35.8489C126.551 35.8489 125.202 35.6159 124 35.1498C122.798 34.6593 121.78 33.9725 120.946 33.0895C120.112 32.2064 119.462 31.1517 118.996 29.9253C118.555 28.6989 118.334 27.3498 118.334 25.8781C118.334 24.4555 118.567 23.131 119.033 21.9046C119.499 20.6782 120.161 19.6234 121.02 18.7404C121.878 17.8329 122.896 17.1216 124.074 16.6065C125.275 16.0914 126.6 15.8338 128.047 15.8338C129.666 15.8338 131.076 16.1527 132.278 16.7904C133.48 17.4036 134.461 18.2376 135.222 19.2923C136.007 20.347 136.571 21.5489 136.914 22.898C137.258 24.247 137.38 25.6574 137.282 27.1291H123.559Z" fill="#F4F5EC"/>
<path d="M111.775 37.7102C111.211 39.2555 110.426 40.3593 109.421 41.0215C108.415 41.6838 107.017 42.0149 105.226 42.0149C104.687 42.0149 104.147 41.9904 103.607 41.9413C103.092 41.9168 102.565 41.88 102.025 41.831V37.5262C102.516 37.5753 103.019 37.6244 103.534 37.6734C104.049 37.7225 104.564 37.7347 105.079 37.7102C105.766 37.6366 106.269 37.3668 106.587 36.9008C106.931 36.4347 107.103 35.9196 107.103 35.3555C107.103 34.9385 107.029 34.5461 106.882 34.1781L100.222 16.3338H105.778L110.083 29.3583H110.156L114.314 16.3338H119.722L111.775 37.7102Z" fill="#F4F5EC"/>
<path d="M83.2461 22.1989C83.3197 20.9725 83.6263 19.9546 84.166 19.1451C84.7056 18.3357 85.3924 17.6857 86.2263 17.1951C87.0603 16.7046 87.9924 16.3612 89.0226 16.165C90.0773 15.9442 91.132 15.8338 92.1867 15.8338C93.1433 15.8338 94.1122 15.9074 95.0933 16.0546C96.0744 16.1772 96.9697 16.4348 97.7791 16.8272C98.5886 17.2197 99.2508 17.7716 99.7659 18.4829C100.281 19.1697 100.539 20.0895 100.539 21.2423V31.1395C100.539 31.9979 100.588 32.8196 100.686 33.6045C100.784 34.3894 100.956 34.9781 101.201 35.3706H95.9027C95.8046 35.0762 95.7188 34.7819 95.6452 34.4876C95.5961 34.1687 95.5593 33.8498 95.5348 33.531C94.7008 34.3894 93.7197 34.9904 92.5914 35.3338C91.4631 35.6772 90.3103 35.8489 89.1329 35.8489C88.2254 35.8489 87.3792 35.7385 86.5943 35.5177C85.8094 35.297 85.1226 34.9536 84.5339 34.4876C83.9452 34.0215 83.4792 33.4328 83.1358 32.7215C82.8169 32.0102 82.6575 31.164 82.6575 30.1829C82.6575 29.1036 82.8414 28.2206 83.2094 27.5338C83.6018 26.8225 84.0924 26.2583 84.681 25.8414C85.2943 25.4244 85.981 25.1178 86.7414 24.9215C87.5263 24.7008 88.3112 24.5291 89.0961 24.4065C89.881 24.2838 90.6537 24.1857 91.4141 24.1121C92.1744 24.0385 92.849 23.9282 93.4376 23.781C94.0263 23.6338 94.4924 23.4253 94.8357 23.1555C95.1791 22.8612 95.3386 22.4442 95.314 21.9046C95.314 21.3404 95.2159 20.8989 95.0197 20.58C94.848 20.2367 94.6027 19.9791 94.2839 19.8074C93.9895 19.6112 93.6339 19.4885 93.2169 19.4395C92.8244 19.3659 92.3952 19.3291 91.9291 19.3291C90.899 19.3291 90.0895 19.5499 89.5009 19.9914C88.9122 20.4329 88.5688 21.1687 88.4707 22.1989H83.2461ZM95.314 26.0621C95.0933 26.2583 94.8112 26.4178 94.4678 26.5404C94.149 26.6385 93.7933 26.7244 93.4008 26.798C93.0329 26.8715 92.6405 26.9329 92.2235 26.9819C91.8065 27.031 91.3895 27.0923 90.9725 27.1659C90.5801 27.2395 90.1876 27.3376 89.7952 27.4602C89.4273 27.5829 89.0961 27.7546 88.8018 27.9753C88.532 28.1715 88.3112 28.4291 88.1395 28.748C87.9678 29.0668 87.882 29.4715 87.882 29.9621C87.882 30.4281 87.9678 30.8206 88.1395 31.1395C88.3112 31.4583 88.5442 31.7159 88.8386 31.9121C89.1329 32.0838 89.4763 32.2064 89.8688 32.28C90.2612 32.3536 90.6659 32.3904 91.0829 32.3904C92.1131 32.3904 92.9103 32.2187 93.4744 31.8753C94.0386 31.5319 94.4556 31.1272 94.7254 30.6612C94.9952 30.1706 95.1546 29.68 95.2037 29.1895C95.2773 28.6989 95.314 28.3064 95.314 28.0121V26.0621Z" fill="#F4F5EC"/>
<path d="M76.3284 9.1048H81.5529V35.3746H76.3284V9.1048Z" fill="#F4F5EC"/>
<path d="M57.5863 37.5288C58.0769 37.6024 58.5675 37.6391 59.058 37.6391C59.9901 37.6637 60.6278 37.4429 60.9712 36.9769C61.3146 36.5354 61.5599 35.8976 61.7071 35.0637L64.025 22.959H60.6401L61.3024 19.4637H64.6505L65.5335 14.7911C65.7542 13.6383 66.0486 12.6571 66.4165 11.8477C66.7844 11.0383 67.2627 10.3883 67.8514 9.8977C68.4401 9.38261 69.1637 9.01468 70.0222 8.79393C70.8806 8.57318 71.9108 8.4628 73.1127 8.4628C74.1674 8.4628 75.0872 8.54865 75.8721 8.72034L75.2099 12.6571C74.9401 12.5345 74.6825 12.4609 74.4372 12.4364C74.2165 12.4118 73.9835 12.3996 73.7382 12.3996C72.7816 12.3996 72.1071 12.5835 71.7146 12.9515C71.3467 13.3194 71.0891 13.8958 70.942 14.6807L70.0222 19.4637H73.6278L73.0391 22.959H69.3599L67.2995 34.3646C67.0788 35.591 66.809 36.6458 66.4901 37.5288C66.1712 38.4363 65.7297 39.1844 65.1656 39.7731C64.6014 40.3863 63.8778 40.8401 62.9948 41.1344C62.1118 41.4288 60.9835 41.5759 59.6099 41.5759C59.1439 41.5759 58.7024 41.5637 58.2854 41.5391C57.8684 41.5391 57.4146 41.5146 56.9241 41.4656L57.5863 37.5288Z" fill="#F4F5EC"/>
<path fill-rule="evenodd" clip-rule="evenodd" d="M147.644 34.8477C148.24 35.4207 148.99 35.7058 149.892 35.7058C150.794 35.7058 151.535 35.4207 152.122 34.8533C152.708 34.286 153 33.5831 153 32.7476C153 31.912 152.705 31.2091 152.116 30.6361C151.526 30.0631 150.782 29.778 149.88 29.778C148.978 29.778 148.231 30.0631 147.638 30.6305C147.046 31.1979 146.748 31.9007 146.748 32.7362C146.748 33.5718 147.046 34.2747 147.644 34.8477ZM148.016 30.972C148.516 30.4865 149.136 30.2437 149.874 30.2437C150.615 30.2437 151.234 30.4865 151.732 30.972C152.229 31.4575 152.479 32.0475 152.479 32.7419C152.479 33.4363 152.229 34.0234 151.732 34.5061C151.232 34.9888 150.615 35.2288 149.874 35.2288C149.133 35.2288 148.514 34.986 148.016 34.5005C147.519 34.015 147.269 33.4278 147.269 32.7362C147.269 32.0447 147.519 31.4575 148.016 30.972ZM149.264 34.3932V33.2303L149.267 33.2331H149.966L150.559 34.396H151.282L150.63 33.1484C150.85 33.0524 151.005 32.9282 151.098 32.773C151.19 32.6177 151.234 32.3806 151.234 32.0616C151.234 31.7426 151.122 31.5027 150.895 31.3446C150.669 31.1837 150.33 31.1047 149.88 31.1047H148.576V34.3932H149.264ZM149.252 32.7193V31.6128H149.82C150.312 31.6128 150.556 31.7963 150.556 32.1661C150.556 32.3608 150.508 32.502 150.413 32.5895C150.321 32.677 150.166 32.7193 149.952 32.7193H149.252Z" fill="#F4F5EC"/>
</svg>
