<svg width="166" height="23" viewBox="0 0 166 23" fill="none" xmlns="http://www.w3.org/2000/svg">
<path d="M30.7409 0H24.5928V18.8458H30.7409V0Z" fill="#14F5DA"/>
<path d="M46.1105 18.8462H30.7402V21.9871H46.1105V18.8462Z" fill="#14F5DA"/>
<path d="M0 21.9864H6.14814V12.5635H18.4445V9.42255H6.14814V3.14062H0V21.9864Z" fill="#14F5DA"/>
<path d="M21.5188 0H6.14844V3.14096H21.5188V0Z" fill="#14F5DA"/>
<path d="M110.667 3.14062H104.519V21.9864H110.667V15.7045H116.815V18.8454H119.889V21.9864H129.111V18.8454H126.037V15.7045H122.963V12.5635H110.667V3.14062Z" fill="#14F5DA"/>
<path d="M122.963 0H110.667V3.14096H122.963V0Z" fill="#14F5DA"/>
<path d="M129.11 3.14062H122.963V12.5635H129.11V3.14062Z" fill="#14F5DA"/>
<path d="M82.9997 3.14062H76.8516V18.8454H82.9997V3.14062Z" fill="#14F5DA"/>
<path d="M101.445 3.14062H95.2969V18.8454H101.445V3.14062Z" fill="#14F5DA"/>
<path d="M95.2963 0H83V3.14096H95.2963V0Z" fill="#14F5DA"/>
<path d="M95.2963 18.8462H83V21.9871H95.2963V18.8462Z" fill="#14F5DA"/>
<path d="M55.3327 3.14062H49.1846V18.8454H55.3327V3.14062Z" fill="#14F5DA"/>
<path d="M73.778 3.14062H67.6299V18.8454H73.778V3.14062Z" fill="#14F5DA"/>
<path d="M67.6293 0H55.333V3.14096H67.6293V0Z" fill="#14F5DA"/>
<path d="M67.6293 18.8462H55.333V21.9871H67.6293V18.8462Z" fill="#14F5DA"/>
<path d="M166.001 19H135.26V22.1409H166.001V19Z" fill="#14F5DA"/>
</svg>