<svg fill="none" height="123" viewBox="0 0 110 123" width="110" xmlns="http://www.w3.org/2000/svg" xmlns:xlink="http://www.w3.org/1999/xlink"><clipPath id="a"><path d="m0 0h110v123h-110z"/></clipPath><g clip-path="url(#a)"><path clip-rule="evenodd" d="m57.3132 123c19.8496 0 36.0394-6.046 36.0394-13.46s-16.1898-13.4607-36.0394-13.4607c-19.8495 0-36.0393 6.0467-36.0393 13.4607s16.1894 13.46 36.0393 13.46z" fill="#adb0d3" fill-rule="evenodd"/><path d="m41.8403 36.3147c6.7119-6.7177 6.7119-17.6093-.0001-24.327-6.7119-6.71776-17.5942-6.71776-24.3062 0-6.712 6.7177-6.712 17.6093 0 24.327s17.5943 6.7177 24.3063 0z" fill="#413e77"/><path clip-rule="evenodd" d="m29.6878 6.94922c5.8275 0 10.9764 2.90317 14.0846 7.34278-.7046 7.6009-7.0936 13.5518-14.872 13.5518-7.0603 0-12.976-4.903-14.5354-11.4925 2.8413-5.5798 8.6359-9.40208 15.3228-9.40208z" fill="#60547c" fill-rule="evenodd"/><path clip-rule="evenodd" d="m29.6878 6.94922c5.8274 0 10.9764 2.90317 14.0845 7.34278-.0553.5953-.1453 1.1808-.2681 1.7536h-3.4132c-2.8975-3.6976-7.4027-6.07343-12.4621-6.07343-5.0595 0-9.5646 2.37583-12.4622 6.07343h-.6416c2.8949-5.4133 8.5986-9.09638 15.1627-9.09638z" fill="#b5b0c6" fill-rule="evenodd"/><path clip-rule="evenodd" d="m29.6876 5.84595c5.0504 0 9.623 2.04892 12.9327 5.36145 3.3097 3.3125 5.3569 7.889 5.3569 12.9438s-2.0472 9.6309-5.3569 12.9438c-3.3097 3.3125-7.8823 5.3614-12.9327 5.3614-5.0505 0-9.6227-2.0489-12.9328-5.3614-3.3097-3.3125-5.3569-7.889-5.3569-12.9438s2.0472-9.6309 5.3569-12.9438c3.3097-3.31253 7.8823-5.36145 12.9328-5.36145zm11.3737 6.92175c-2.9106-2.91306-6.932-4.71522-11.3737-4.71522s-8.4632 1.80171-11.3738 4.71522c-2.9106 2.9131-4.7112 6.938-4.7112 11.3835s1.8002 8.4704 4.7112 11.3835c2.9106 2.9131 6.9321 4.7152 11.3738 4.7152s8.4631-1.8017 11.3737-4.7152c2.9106-2.9131 4.7112-6.938 4.7112-11.3835s-1.8006-8.4704-4.7112-11.3835z" fill="#30065a" fill-rule="evenodd"/><path d="m97.0912 36.3151c6.7118-6.7177 6.7118-17.6093 0-24.327-6.712-6.71774-17.5942-6.71773-24.3062 0-6.712 6.7177-6.712 17.6093 0 24.327 6.712 6.7178 17.5942 6.7178 24.3062 0z" fill="#413e77"/><path clip-rule="evenodd" d="m84.9391 6.94922c6.6868 0 12.481 3.82178 15.3219 9.40208-1.5586 6.5895-7.4743 11.4925-14.5346 11.4925-7.7783 0-14.1673-5.9509-14.8719-13.5518 3.1077-4.43961 8.2571-7.34278 14.0846-7.34278z" fill="#60547c" fill-rule="evenodd"/><path clip-rule="evenodd" d="m84.9389 6.94922c6.5635 0 12.2673 3.68308 15.1621 9.09638h-.6407c-2.8975-3.6976-7.4027-6.07343-12.4621-6.07343-5.0595 0-9.5646 2.37583-12.4621 6.07343h-3.4132c-.1228-.5733-.2128-1.1583-.2682-1.7536 3.1072-4.43961 8.2567-7.34278 14.0842-7.34278z" fill="#b5b0c6" fill-rule="evenodd"/><path clip-rule="evenodd" d="m84.939 5.84595c5.0505 0 9.6227 2.04892 12.9323 5.36145 3.3097 3.3125 5.3567 7.889 5.3567 12.9438s-2.047 9.6309-5.3567 12.9438c-3.3096 3.3125-7.8823 5.3614-12.9323 5.3614-5.0504 0-9.6231-2.0489-12.9327-5.3614-3.3097-3.3125-5.3569-7.889-5.3569-12.9438s2.0472-9.6309 5.3569-12.9438c3.3096-3.31253 7.8823-5.36145 12.9327-5.36145zm11.3738 6.92175c-2.9106-2.91306-6.9321-4.71522-11.3738-4.71522s-8.4631 1.80171-11.3742 4.71522c-2.9106 2.9131-4.7107 6.938-4.7107 11.3835s1.8001 8.4704 4.7107 11.3835 6.9321 4.7152 11.3742 4.7152c4.4417 0 8.4632-1.8017 11.3738-4.7152 2.9106-2.9131 4.7112-6.938 4.7112-11.3835s-1.8006-8.4704-4.7112-11.3835z" fill="#30065a" fill-rule="evenodd"/><path d="m57.3134 116.175c29.0981 0 52.6866-6.026 52.6866-13.46 0-7.4338-23.5885-13.4602-52.6866-13.4602s-52.68669 6.0264-52.68669 13.4602c0 7.434 23.58859 13.46 52.68669 13.46z" fill="#adb0d3"/><g clip-rule="evenodd" fill-rule="evenodd"><path d="m52.8428 105.68-.9728 2.001c-.3167.651-.9543 1.029-1.6769.993-11.403-.565-22.7911-2.078-33.9255-4.647-12.14271-3.256-7.90933-25.7698 1.4991-26.1359 3.6229-.1409 7.2853 1.5298 10.3097 3.3904 4.044 2.488 7.7091 5.7127 11.1385 8.9807 2.6338 2.5105 5.1683 5.1223 7.6978 7.7368 1.8335 1.8949 3.6543 3.806 5.5611 5.628.5656.539.7109 1.349.369 2.053z" fill="#413e77"/><path d="m10.7654 83.5399c1.5864-3.2179 4.0363-5.5335 7.0013-5.6492 3.6228-.1409 7.2853 1.5297 10.3097 3.3904 4.044 2.488 7.7091 5.7127 11.1384 8.9806 2.6339 2.5105 5.1684 5.1223 7.6979 7.7369 1.8334 1.8949 3.6543 3.8054 5.5611 5.6274.4355.416.6218.992.5287 1.556-14.9935-.463-28.7771-3.327-40.0235-7.8792-1.4735-2.3267-2.3369-5.1457-2.3369-8.184 0-1.9777.3658-3.8623 1.0272-5.5789z" fill="#60547c"/><path d="m10.7656 83.5399c1.5865-3.2179 4.0363-5.5335 7.0014-5.6492 3.6228-.1409 7.2852 1.5297 10.3096 3.3904 1.9419 1.1947 3.7961 2.5591 5.5792 4.0168h-3.1693c-.7888-.5579-1.5914-1.092-2.4099-1.5954-3.0244-1.8607-6.6868-3.531-10.3096-3.3905-2.7567.1072-5.068 2.117-6.6545 4.9859h-.0004c.1516-.6025.3383-1.1893.5574-1.758z" fill="#b5b0c6"/><path d="m53.8353 106.164-.9723 2-.0018-.001c-.256.526-.6443.943-1.1162 1.222-.472.279-1.0227.419-1.604.39-5.7987-.287-11.5929-.818-17.3511-1.607-5.6389-.772-11.2383-1.79-16.7688-3.065l-.0387-.009c-4.0548-1.088-6.46597-4.071-7.57279-7.729-.71404-2.3597-.87421-5.0021-.57546-7.5775.2974-2.5649 1.05238-5.0763 2.17005-7.1847 1.765-3.3296 4.4484-5.6866 7.723-5.814 1.9653-.0761 3.9247.3323 5.7937 1.0096 1.8348.6647 3.5716 1.5797 5.1333 2.5407 2.053 1.2631 4.0219 2.723 5.9206 4.2888 1.8852 1.5544 3.6754 3.1922 5.3991 4.8345 1.3201 1.2577 2.62 2.5465 3.9099 3.8506 1.2909 1.306 2.5556 2.611 3.8186 3.916.3379.3494.5511.5705.7761.8033 1.5648 1.6212 3.1306 3.2427 4.7548 4.7937.4558.436.7433.985.8486 1.571.1057.588.0279 1.202-.2466 1.767zm-2.9578 1.033.9723-2.001c.0675-.139.0882-.282.0652-.41-.0234-.13-.0913-.257-.2011-.361-1.6539-1.581-3.2395-3.222-4.8237-4.8639-.2897-.2999-.5907-.6115-.7675-.7943-1.267-1.3095-2.5345-2.6177-3.801-3.8988-1.2684-1.283-2.5525-2.5555-3.8667-3.8074-1.7057-1.6256-3.4631-3.2346-5.2786-4.7315-1.8024-1.486-3.6876-2.882-5.679-4.1068-1.4627-.8997-3.0694-1.7499-4.7274-2.3507-1.6238-.5881-3.3074-.9443-4.965-.8799-2.3922.0932-4.4376 1.9751-5.85 4.6392-.9911 1.8692-1.662 4.1091-1.9283 6.4075-.26505 2.2876-.12738 4.6211.4976 6.6871.8967 2.9644 2.8192 5.3745 6.0272 6.2345 5.4653 1.259 10.985 2.262 16.5313 3.022 5.697.781 11.4278 1.306 17.1612 1.59.1413.007.2713-.025.3779-.088.1058-.063.1944-.159.2547-.283v-.004z" fill="#30065a"/><path d="m61.6512 105.68.9723 2.001c.3167.651.9543 1.029 1.6773.993 11.403-.565 22.7912-2.078 33.9256-4.647 12.1426-3.256 7.9096-25.7698-1.4987-26.1359-3.6229-.1409-7.2853 1.5298-10.3093 3.3904-4.0439 2.488-7.709 5.7127-11.1384 8.9807-2.6339 2.5105-5.1683 5.1223-7.6978 7.7368-1.8335 1.8949-3.6544 3.806-5.5612 5.628-.5664.539-.7117 1.349-.3698 2.053z" fill="#413e77"/><path d="m103.728 83.5399c-1.586-3.2179-4.0358-5.5335-7.0004-5.6492-3.6229-.1409-7.2853 1.5297-10.3093 3.3904-4.0439 2.488-7.709 5.7127-11.1384 8.9806-2.6339 2.5105-5.1683 5.1223-7.6978 7.7369-1.8335 1.8949-3.6544 3.8054-5.5612 5.6274-.4364.417-.6227.995-.5277 1.56 15.0447-.45 28.876-3.317 40.1548-7.8832 1.474-2.3267 2.337-5.1457 2.337-8.184 0-1.9777-.365-3.8623-1.027-5.5789z" fill="#60547c"/><path d="m103.729 83.5399c-1.587-3.2179-4.0367-5.5335-7.0013-5.6492-3.6228-.1409-7.2853 1.5297-10.3092 3.3904-1.9419 1.1947-3.7965 2.5591-5.5791 4.0168h3.1634c.7905-.5597 1.595-1.0947 2.4157-1.5995 3.0244-1.8607 6.6864-3.5309 10.3092-3.3904 2.7581.1072 5.0703 2.1187 6.6563 4.9895h.131c-.152-.6025-.338-1.1893-.558-1.7581h.772z" fill="#b5b0c6"/><path d="m62.6442 105.196.9723 2.001v.004c.0603.124.1489.22.2546.283.1071.063.2367.095.378.088 5.7334-.284 11.4642-.809 17.1612-1.59 5.5462-.76 11.0664-1.763 16.5313-3.022 3.2084-.861 5.1304-3.2701 6.0274-6.2345.625-2.066.763-4.3991.497-6.6871-.266-2.298-.937-4.5378-1.928-6.4075-1.412-2.6641-3.4572-4.546-5.8495-4.6392-1.6575-.0644-3.3412.2918-4.965.8799-1.658.6003-3.2646 1.4505-4.7274 2.3507-1.9909 1.2253-3.8766 2.6213-5.679 4.1068-1.815 1.4969-3.5724 3.1054-5.2781 4.7315-1.3142 1.2523-2.5983 2.5249-3.8667 3.8074-1.267 1.2816-2.534 2.5893-3.801 3.8988-.1768.1828-.4778.4949-.7676.7943-1.5842 1.6409-3.1697 3.2829-4.8236 4.8639-.1098.104-.1778.231-.2012.361-.0234.128-.0027.271.0653.41zm-1.0115 2.967-.0018.001-.9727-2c-.2745-.565-.3519-1.179-.2466-1.767.1053-.586.3928-1.135.8486-1.571 1.6242-1.551 3.19-3.173 4.7548-4.7937.225-.2328.4383-.4539.7762-.8033 1.2625-1.305 2.5272-2.6105 3.8185-3.916 1.2895-1.3041 2.5898-2.5929 3.9095-3.8506 1.7236-1.6423 3.5139-3.2801 5.3991-4.8345 1.8987-1.5653 3.868-3.0257 5.9206-4.2888 1.5617-.9606 3.298-1.876 5.1333-2.5407 1.869-.6773 3.828-1.0857 5.7932-1.0096 3.2746.1274 5.9576 2.4844 7.7226 5.814 1.118 2.1084 1.873 4.6202 2.17 7.1847.299 2.5754.139 5.2174-.575 7.5775-1.107 3.658-3.518 6.641-7.5727 7.729l-.0392.009c-5.53 1.275-11.1294 2.293-16.7684 3.065-5.7582.789-11.5524 1.32-17.351 1.607-.5814.029-1.1321-.111-1.6036-.39-.4711-.279-.8589-.696-1.1154-1.222z" fill="#30065a"/><path d="m88.3687 72.5163c1.2233 3.5957 1.8735 7.25 1.8735 10.7075 0 24.6372-14.4378 25.7062-32.929 25.7062s-32.9289-1.069-32.9289-25.7062c0-3.4579.6501-7.1122 1.8735-10.7075-6.1353-4.4708-10.3601-10.7684-10.3601-19.2554 0-5.2633 1.9846-10.2005 5.4558-14.4614 4.5772-17.655 18.943-32.16321 35.9602-32.16321 17.0167 0 31.383 14.50821 35.9597 32.16321 3.4707 4.2613 5.4558 9.1981 5.4558 14.4614-.0005 8.487-4.2253 14.7851-10.3605 19.2554z" fill="#fff"/><path d="m89.0449 74.7214c.7851 2.8726 1.1973 5.7501 1.1973 8.5024 0 21.1232-10.6129 24.9212-25.2937 25.5752l-1.0078-1.059-3.186-3.343.3681-9.0516 3.2593-5.978-.7501-.5615 2.0351-2.3317h-8.2486-8.249l2.035 2.3317-.75.5615 3.2593 5.978.3685 9.0516-3.186 3.343-1.0163 1.068c-14.7852-.628-25.4957-4.365-25.4957-25.5842 0-2.7523.4121-5.6298 1.1972-8.5024z" fill="#60547c"/><path d="m89.06 74.7755.0113.0414.0018.0067.0207.0766.0112.0414c.0333.1248.0657.2499.0977.3747l.0108.0414.0211.0833.0104.0414c.0175.0694.0346.1387.0513.2081l.0099.0419.0098.0414.01.0414.0099.0415.0098.0414c.0725.3053.1409.6102.2043.9146-4.9416 6.8452-14.4652 10.9538-25.8489 12.045l-.0697-.0523 2.035-2.3317h-8.2485-8.249l2.035 2.3317-.0693.0523c-11.5092-1.1029-21.1169-5.2899-26.0108-12.2715l.0085-.0397.0086-.0396.0081-.0365.0004-.0031.009-.0396.0171-.0766.0005-.0027.0027-.0126.0058-.0266.009-.0396.009-.0396.0063-.0289.0027-.0108.0023-.0099.0157-.0693.0095-.0396.0013-.005.0081-.0347.0185-.0792.0049-.0207.0045-.019.0279-.1161.0004-.0027.0288-.1189.0032-.0131.0063-.0265.0193-.0793.0072-.0293.0027-.0103.0099-.0397.0099-.0396.0099-.0396.0014-.0054.0085-.0342.0104-.0397.0099-.0396.0054-.0216.0045-.018.0103-.0397.0104-.0396.0207-.0792.0103-.0397.0104-.0396.0103-.0396.0104-.0396.0108-.0397.0076-.0292.0027-.0104.0108-.0396.0108-.0397.0108-.0396.0014-.0058h1.4748c8.0785 4.0379 18.7108 6.4908 30.3621 6.4908 11.6509 0 22.2823-2.4533 30.3608-6.4908h1.2661z" fill="#413e77"/><path d="m69.3999 31.5544c-.8908.4954-1.6872 1.1217-2.3733 1.8598-1.9428 2.0908-2.8449 4.8868-2.9552 7.6553-.1327 3.3387.8558 6.6813 2.5813 9.562 1.7259 2.8806 4.2356 5.3772 7.3019 6.9357 2.5376 1.2897 5.5125 1.9364 8.3565 1.3613 1.0065-.2035 1.9675-.5552 2.858-1.051.8904-.4958 1.6872-1.1217 2.3733-1.8598 1.9433-2.0908 2.8454-4.8868 2.9552-7.6553.1327-3.3387-.8558-6.6818-2.5813-9.562-1.7255-2.8807-4.2356-5.3772-7.3019-6.9357-2.5376-1.2897-5.5125-1.9364-8.3565-1.3613-1.006.2035-1.9671.5552-2.858 1.051z" fill="#60547c"/><path d="m45.2259 31.5544c-.8909-.4958-1.8519-.8475-2.8579-1.051-2.844-.5751-5.8194.0716-8.357 1.3613-3.0663 1.5585-5.5764 4.055-7.3019 6.9357-1.7255 2.8802-2.714 6.2233-2.5813 9.562.1103 2.7685 1.0119 5.5645 2.9552 7.6553.6861.7381 1.4829 1.3644 2.3733 1.8602.8905.4954 1.8515.8475 2.858 1.0511 2.844.575 5.8189-.0716 8.3565-1.3613 3.0663-1.5586 5.5764-4.0551 7.3019-6.9358 1.7255-2.8802 2.7144-6.2233 2.5813-9.5619-.1103-2.7685-1.0119-5.5645-2.9552-7.6553-.6852-.7386-1.482-1.3649-2.3729-1.8603z" fill="#60547c"/><path d="m88.3687 72.5162c-20.704 12.5048-41.4074 12.6317-62.1109 0-6.1353-4.4707-10.3601-10.7683-10.3601-19.2554 0-3.4746.8652-6.8069 2.4517-9.8965h.179c-.4098 16.4278 4.9493 29.7067 38.7848 29.7067 33.8356 0 39.1947-13.2789 38.7848-29.7067h.1791c1.5864 3.0896 2.4516 6.4219 2.4516 9.8965 0 8.4871-4.2248 14.7851-10.36 19.2554z" fill="#b2b2d4"/><path d="m88.8845 74.1509c.0549.19.1089.3805.1606.5705h-1.2661c.3739-.1868.7424-.3769 1.1055-.5705zm-25.183 14.7077c-2.0399.1954-4.1393.2949-6.2832.2949s-4.2433-.0995-6.2833-.2949l.0693-.0523-2.035-2.3317h8.249 8.2485l-2.035 2.3317zm-38.1202-14.1372c.0607-.2224.1237-.4449.189-.6673.4207.2269.8499.4494 1.2859.6673z" fill="#d5bade"/><path d="m90.1262 86.8533c-1.3884 21.1127-15.2769 22.0767-32.8128 22.0767-17.536 0-31.4244-.965-32.8129-22.0767h.9867c.6429 9.6038 8.4389 17.3897 17.4131 17.3897 4.5214 0 8.4785-1.976 11.2105-5.1655v9.8375h6.4052v-9.8375c2.7319 3.1895 6.6891 5.1655 11.2104 5.1655 8.9743 0 16.7702-7.7854 17.4131-17.3897z" fill="#413e77"/><path d="m63.7333 108.846c-2.0711.069-4.2163.084-6.4205.084s-4.3499-.015-6.421-.084c-.2573-.195-.5057-.401-.7446-.618l2.3698-2.189 2.3207-7.3253-2.0472 6.4623c1.4956.049 3.0038.074 4.5223.074 1.5554 0 3.0995-.026 4.6311-.077l-2.1561-3.717 3.1734 5.47 1.7331 1.098c-.3032.293-.624.567-.961.822z" fill="#d5bade"/><path d="m89.4506 72.2744c1.2391 3.6764 1.8969 7.4117 1.8969 10.9498 0 12.7903-3.824 19.5058-10.096 23.0508-6.1613 3.483-14.5408 3.761-23.938 3.761-9.3977 0-17.7767-.277-23.9385-3.761-6.272-3.545-10.0959-10.2605-10.0959-23.0508 0-3.5376.6573-7.2734 1.8969-10.9498h2.3324c-1.3174 3.6701-2.0188 7.4171-2.0188 10.9498 0 11.8473 3.3951 17.9848 8.9648 21.1328 5.6799 3.211 13.7656 3.467 22.8591 3.467s17.1792-.256 22.8591-3.467c5.5696-3.148 8.9648-9.2855 8.9648-21.1328 0-3.5327-.7014-7.2797-2.0188-10.9498z" fill="#30065a"/><path d="m57.3133 5.52985c8.5477 0 16.439 3.53045 22.8325 9.24855 6.6662 5.9626 11.7 14.3141 14.1318 23.5109 1.7665 2.2042 3.154 4.5828 4.1007 7.0915.9498 2.5173 1.4555 5.1583 1.4555 7.8796 0 9.3003-4.8196 16.0793-11.6999 20.7743-2.8247 1.9273-5.9998 3.4985-9.328 4.7454l-.0054-.009c-.1624.0941-.3514.1482-.5525.1482-.6105 0-1.105-.4949-1.105-1.106 0-.4094.2223-.7669.5525-.9578l-.0058-.0104.0854-.0315c.0581-.0275.1184-.05.1814-.0671 3.1931-1.1911 6.2351-2.6929 8.9342-4.5347 6.3121-4.3068 10.7331-10.4968 10.7331-18.9514 0-2.4583-.4549-4.8391-1.3089-7.1019-.8886-2.3552-2.2082-4.5914-3.8964-6.6638-.0971-.1193-.1705-.2607-.2114-.4192-2.3005-8.8734-7.1265-16.9286-13.5294-22.6557-5.9989-5.3655-13.3849-8.67801-21.3649-8.67801-7.9799 0-15.366 3.31291-21.3649 8.67801-6.3966 5.7221-11.2194 13.7679-13.5221 22.6318-.0369.1577-.1089.3094-.2178.4431-1.6881 2.0724-3.0078 4.3086-3.8964 6.6638-.8539 2.2633-1.3088 4.6436-1.3088 7.1019 0 8.4546 4.421 14.6446 10.733 18.9514 2.6992 1.8418 5.7411 3.3436 8.9343 4.5347.063.0171.1233.0396.1813.0671l.0855.0315-.0059.0104c.3303.1909.5525.5484.5525.9578 0 .6111-.4944 1.106-1.105 1.106-.2011 0-.3901-.0541-.5525-.1482l-.0054.009c-3.3281-1.2469-6.5033-2.8185-9.3279-4.7454-6.8808-4.695-11.7-11.4744-11.7-20.7743 0-2.7213.5062-5.3628 1.4555-7.8796.9462-2.5087 2.3343-4.8873 4.1007-7.0915 2.4319-9.1968 7.4657-17.5483 14.1318-23.5109 6.3935-5.7181 14.2848-9.24855 22.8326-9.24855z" fill="#30065a"/><path d="m49.4863 90.1893c-.3816-.4747-.306-1.1691.1683-1.5509.4742-.3819 1.168-.3062 1.5495.1684 1.8699 2.3232 3.3821 5.5042 4.0188 8.6483.4526 2.2362.467 4.4699-.1354 6.3989-.6344 2.03-1.9293 3.713-4.0778 4.719-1.4717.69-3.3321 1.045-5.6407.949-.6079-.024-1.0812-.537-1.0573-1.145.0238-.608.5358-1.082 1.1437-1.058 1.941.08 3.4608-.198 4.6221-.741 1.5244-.715 2.4472-1.921 2.9034-3.381.4877-1.562.4661-3.4197.0837-5.3101-.5656-2.7969-1.9127-5.6289-3.5783-7.6976z" fill="#30065a"/><path d="m63.4217 88.8063c.3815-.4746 1.0753-.5503 1.5496-.1684.4742.3819.5498 1.0762.1682 1.5509-1.6656 2.0692-3.0122 4.9007-3.5787 7.6981-.3824 1.8904-.404 3.7481.0837 5.3101.4558 1.46 1.379 2.666 2.9034 3.38 1.1612.544 2.6816.822 4.6221.742.6079-.024 1.1199.45 1.1437 1.058.0239.608-.4495 1.121-1.0573 1.145-2.3086.096-4.1691-.259-5.6408-.949-2.1479-1.006-3.4428-2.689-4.0777-4.719-.6024-1.929-.588-4.1627-.1354-6.399.6366-3.1441 2.1493-6.3255 4.0192-8.6487z" fill="#30065a"/><path d="m44.1416 83.9056v6.2323c0 1.5293-1.2504 2.7807-2.7784 2.7807h-9.3603c-1.5279 0-2.7783-1.2514-2.7783-2.7807v-11.6257c0-.4215.0949-.8223.265-1.1812 3.8348 3.0617 8.8708 5.2691 14.652 6.5746z" fill="#e9325e"/><path d="m43.6552 91.7041c-.5017.7318-1.3431 1.2145-2.292 1.2145h-9.3603c-1.5279 0-2.7783-1.2514-2.7783-2.7807v-1.4221h.9998c.116 1.4244 1.3169 2.5538 2.7688 2.5538h9.3603c.4693 0 .9125-.1185 1.3017-.3265z" fill="#f5708f"/><path d="m44.1416 83.9055v5.4853c-5.9153-1.3352-11.0503-3.6156-14.917-6.7889v-4.0893c0-.3693.0729-.7223.2052-1.0452.1727.0752.3464.15.521.2238 3.7736 2.8748 8.6386 4.9607 14.1908 6.2143z" fill="#c7254b"/><path d="m45.2467 83.9055v6.2324c0 1.0699-.4365 2.0417-1.1397 2.7455-.7032.7039-1.6742 1.1407-2.7432 1.1407h-9.3608c-1.069 0-2.04-.4368-2.7432-1.1407-.7033-.7038-1.1397-1.676-1.1397-2.7455v-11.6258c0-.2801.0338-.5642.0972-.8475.0634-.2832.1566-.5529.2758-.8047l.5962-1.2608 1.087.8677c1.829 1.4599 3.9418 2.719 6.2855 3.7705 2.4134 1.0825 5.0734 1.9489 7.9219 2.592l.8634.195v.8812zm-2.2101 6.2319v-5.3596c-2.6663-.6512-5.1724-1.495-7.4733-2.5272-1.892-.8488-3.6449-1.8237-5.2336-2.922v10.8088c0 .4598.1885.8777.4922 1.1821.3037.304.7217.4926 1.1811.4926h9.3603c.459 0 .8774-.1891 1.1811-.4926.3037-.304.4922-.7223.4922-1.1821z" fill="#30065a"/><path d="m91.9591 69.8904c-4.1204 10.9589-18.0232 16.8084-34.5406 16.8084-16.5178 0-30.4206-5.8495-34.5406-16.8084 8.3903 5.4322 20.7521 8.8672 34.5406 8.8672 13.7881 0 26.1499-3.435 34.5406-8.8672z" fill="#e9325e"/><path d="m87.3442 76.9419c-6.3948 6.3962-17.4086 9.7565-29.9256 9.7565-12.5175 0-23.5313-3.3603-29.9262-9.7565h1.3476c5.7906 4.6715 16.421 7.8026 28.5786 7.8026 12.1575 0 22.7875-3.1311 28.5786-7.8026z" fill="#f5708f"/><path d="m91.9591 69.8904c-.0117.0311-.0243.0617-.0364.0928-5.5436 7.3032-18.9024 12.4516-34.5042 12.4516-15.6022 0-28.961-5.1484-34.5041-12.4516-.0117-.0311-.0248-.0617-.0365-.0928 8.3903 5.4322 20.7521 8.8672 34.5406 8.8672 13.7881 0 26.1499-3.435 34.5406-8.8672z" fill="#c7254b"/><path d="m92.9908 70.279c-2.1102 5.6132-6.6266 9.9371-12.6889 12.8871-6.2842 3.0581-14.2421 4.6382-22.8834 4.6382-8.6418 0-16.5997-1.5806-22.8839-4.6382-6.0618-2.95-10.5782-7.2743-12.6884-12.8871-.2146-.5701.0733-1.2063.6429-1.4211.3541-.1333.7334-.073 1.0214.1287 4.1726 2.6952 9.3558 4.8886 15.2229 6.3945 5.6781 1.4577 12.0045 2.27 18.6851 2.27 6.6805 0 13.0065-.8123 18.6846-2.27 5.8829-1.5104 11.0777-3.711 15.2558-6.4156.5102-.3319 1.1923-.1865 1.5239.3238.1984.3053.2259.6723.1071.9888zm-13.6473 10.8999c4.3229-2.1034 7.7784-4.9422 9.9943-8.4754-3.7142 1.9733-7.9961 3.607-12.6911 4.8121-5.873 1.5076-12.3848 2.3479-19.2287 2.3479-6.8438 0-13.3557-.8403-19.2286-2.3479-4.695-1.2051-8.977-2.8388-12.6911-4.8121 2.2163 3.5332 5.6713 6.372 9.9942 8.4754 5.9801 2.9099 13.605 4.4135 21.9255 4.4135 8.3201 0 15.946-1.5036 21.9255-4.4135z" fill="#30065a"/></g><path d="m32.7648 63.6604c3.0661 0 5.5517-1.4121 5.5517-3.154s-2.4856-3.154-5.5517-3.154-5.5517 1.4121-5.5517 3.154 2.4856 3.154 5.5517 3.154z" fill="#ffc0e5"/><g clip-rule="evenodd" fill-rule="evenodd"><path d="m81.862 63.6604c3.0577 0 5.5516-1.4167 5.5516-3.154s-2.4939-3.154-5.5516-3.154-5.5517 1.4167-5.5517 3.154 2.494 3.154 5.5517 3.154z" fill="#ffc0e5"/><path d="m57.3133 54.3286c3.3362 0 6.0569-1.4415 6.0569-3.2094 0-1.768-2.7207-3.2094-6.0569-3.2094-3.3358 0-6.057 1.4414-6.057 3.2094 0 1.7679 2.7208 3.2094 6.057 3.2094z" fill="#30065a"/><path d="m57.3133 49.9866c1.0074 0 1.829-.3571 1.829-.7948s-.8216-.7948-1.829-.7948-1.8289.3571-1.8289.7948.8215.7948 1.8289.7948z" fill="#fff"/><path d="m66.841 12.8947c-1.15 1.9935-4.471 2.239-7.4805.5791-1.1703.5192-2.3545.5642-3.3084.0131-.0945-.0545-.1849-.114-.2713-.1784-.5358.3679-1.1315.5733-1.7587.5733-2.3437 0-4.2438-2.8609-4.2438-6.38952 0-3.52866 1.9001-6.3895 4.2438-6.3895 1.3659 0 2.5807.97178 3.3569 2.48078 1.6508-1.46892 3.6174-1.99624 5.0576-1.16406 1.227.70879 1.7907 2.24166 1.6558 4.0186 2.6078 1.8026 3.8329 4.577 2.7486 6.4566z" fill="#fff"/><path d="m51.615 10.8472c.2709.5426.0513 1.2027-.4909 1.4738-.5421.2711-1.2013.0514-1.4726-.4913-.3127-.6241-.5602-1.3225-.7266-2.07186-.1611-.725-.2484-1.48738-.2484-2.26552 0-1.98363.5458-3.79705 1.4281-5.12547.9709-1.46217 2.3536-2.36685 3.9175-2.36685.9125 0 1.7678.312968 2.5214.870006.409.302164.7856.677274 1.1203 1.112724.6893-.44761 1.4092-.76283 2.121-.92674 1.1271-.259385 2.2362-.144105 3.1986.41203.8238.47598 1.4226 1.20729 1.792 2.10432.2862.69393.4329 1.48513.4374 2.32452 2.2091 1.71299 2.8741 3.63673 2.6086 5.34204-.1448.9299-.5687 1.7747-1.1743 2.4754-.5853.6773-1.3471 1.2235-2.1898 1.5801-1.8829.7962-4.1776.6602-5.876-1.0402-.4306-.4309-.4306-1.1294 0-1.5599.4305-.4309 1.1284-.4309 1.5585 0 .9831.984 2.3396 1.0506 3.4649.5746.5327-.2251 1.0128-.5692 1.3804-.9938.3473-.4017.588-.8714.6663-1.3717.162-1.04153-.3851-2.29791-2.1277-3.52006-.3437-.20804-.5606-.59757-.5291-1.02536.0562-.73852-.0288-1.40858-.2515-1.94851-.1876-.45527-.4733-.81597-.8535-1.03527-.454-.26253-1.016-.30802-1.6139-.17067-.7109.16346-1.4627.58045-2.1651 1.20504l-.0009-.0009c-.0675.05989-.1435.11258-.2272.15581-.5399.27829-1.2031.06619-1.4812-.47418-.319-.62053-.7185-1.11993-1.1671-1.45136-.373-.2756-.7846-.4305-1.2125-.4305-.7798 0-1.519.52596-2.0837 1.3757-.6532.98394-1.0577 2.36505-1.0577 3.91053 0 .64034.0661 1.24196.188 1.79135.1278.57054.3136 1.09738.5467 1.56218z" fill="#30065a"/><path d="m90.2931 85.8144c0 17.4146-14.7653 31.5316-32.9798 31.5316s-32.9798-14.117-32.9798-31.5316c0-6.5602 14.7658-11.8784 32.9798-11.8784s32.9798 5.3182 32.9798 11.8784z" fill="#adb0d3"/><path d="m29.591 79.379c5.8715-3.2747 16.0935-5.443 27.7223-5.443 10.1743 0 19.2714 1.6599 25.3202 4.2686-3.5936 3.2836-5.2002 8.4262-2.6496 12.266.3568.5373.7802 1.0259 1.2576 1.4663.6865.6327 2.3751 2.2664-1.2999 3.2517-2.4224.9326-4.9695 1.6229-7.4378 2.1421-2.35.4945-4.0705 2.2732-4.4871 4.6403-3.3367 18.945-32.1366 12.626-32.1366-1.821 0-.135.0027-.2705.0085-.4051.1003-2.3777-1.1689-4.4649-3.3245-5.4686-1.541-.7178-3.4168-1.7338-4.9659-3.0392-2.0031-1.74-1.3268-4.5689 1.1266-4.5887 1.7318-.4751 3.4636-.9497 5.1954-1.4248z" fill="#fff"/><path d="m91.3954 85.8145c0 9.0193-3.823 17.1835-10.0041 23.0935-6.1659 5.895-14.679 9.542-24.078 9.542s-17.9121-3.646-24.0779-9.542c-6.1812-5.909-10.0042-14.0742-10.0042-23.0935 0-3.7939 3.9711-7.1213 10.3916-9.4337 6.0862-2.1921 14.4643-3.548 23.6905-3.548 9.2263 0 17.6039 1.3559 23.6906 3.548 6.4205 2.3124 10.3915 5.6398 10.3915 9.4337zm-11.5199 21.4995c5.7555-5.503 9.3153-13.1043 9.3153-21.4995 0-2.7663-3.4118-5.3781-8.9275-7.3649-5.85-2.107-13.9622-3.4102-22.95-3.4102s-17.1 1.3032-22.95 3.4102c-5.5156 1.9868-8.9274 4.5986-8.9274 7.3649 0 8.3952 3.5598 15.9965 9.3153 21.4995 5.7703 5.517 13.7471 8.929 22.5626 8.929 8.8154 0 16.7913-3.412 22.5617-8.929z" fill="#30065a"/><path d="m57.3134 93.6629c15.1981 0 27.5941-3.5259 27.5941-7.8485 0-4.323-12.396-7.8489-27.5941-7.8489-15.1982 0-27.5942 3.5259-27.5942 7.8489s12.3956 7.8485 27.5942 7.8485z" fill="#adb0d3"/><path d="m57.3134 76.8627c7.7172 0 14.7221.8947 19.8095 2.3421 5.4909 1.5616 8.8874 3.8884 8.8874 6.6101s-3.3961 5.0485-8.8874 6.6102c-5.0874 1.4468-12.0923 2.342-19.8095 2.342s-14.7222-.8952-19.8095-2.342c-5.4909-1.5617-8.8874-3.8885-8.8874-6.6102 0-2.7212 3.3965-5.048 8.8874-6.6101 5.0873-1.4474 12.0923-2.3421 19.8095-2.3421zm19.2146 4.4621c-4.8997-1.3937-11.6923-2.2556-19.2151-2.2556s-14.3149.8619-19.2151 2.2556c-4.4961 1.2789-7.2771 2.8766-7.2771 4.4897 0 1.613 2.781 3.2111 7.2771 4.4896 4.8997 1.3937 11.6923 2.2556 19.2151 2.2556s14.315-.8619 19.2151-2.2556c4.4962-1.2789 7.2772-2.8766 7.2772-4.4896 0-1.6131-2.781-3.2108-7.2772-4.4897z" fill="#30065a"/><path d="m43.9135 79.7222c6.5334 0 11.8299 5.3011 11.8299 11.8396 0 .3319-.0144.6597-.0409.9844-6.879-.1135-13.0565-.9488-17.6039-2.2421-2.3514-.6687-4.2334-1.4248-5.4941-2.225 1.4857-4.8386 5.9867-8.3569 11.309-8.3569z" fill="#fac307"/><path d="m43.9135 79.7222c1.0969 0 2.1592.1499 3.167.43.2943 1.0254.4626 2.2084.4626 3.4679 0 3.9186-1.6252 7.0951-3.6301 7.0951-2.0044 0-3.6296-3.1765-3.6296-7.0951 0-1.2595.1683-2.4425.4626-3.4679 1.0087-.2801 2.0705-.43 3.1675-.43z" fill="#fce28b"/><path d="m43.9135 78.6189c3.5711 0 6.8043 1.4487 9.1444 3.7912 2.3401 2.3421 3.7879 5.578 3.7879 9.1522 0 .7146-.058 1.4157-.1691 2.0989-.7518-.005-1.4965-.018-2.2326-.0397.1296-.6664.1971-1.3549.1971-2.0592 0-2.9649-1.2009-5.6492-3.1419-7.5919-1.9409-1.9426-4.623-3.1445-7.5858-3.1445-2.9623 0-5.6443 1.2019-7.5853 3.1445-1.5271 1.5284-2.5952 3.5152-2.9821 5.7366-.7838-.3896-1.4524-.8002-1.995-1.228.5705-2.3358 1.774-4.423 3.4185-6.0689 2.3401-2.3421 5.5729-3.7912 9.1439-3.7912z" fill="#30065a"/><path d="m43.9137 84.1353c4.0984 0 7.4207 3.3251 7.4207 7.4265 0 .2734-.0153.5431-.0441.8088-5.0964-.326-9.6411-1.0564-13.1919-2.0665-.4918-.14-.9629-.2837-1.4124-.4309.764-3.2878 3.7097-5.7379 7.2277-5.7379z" fill="#fac307"/><path d="m43.9136 84.1353c1.2886 0 2.5007.3291 3.5567.9073-.337 3.2369-1.8011 5.6722-3.5567 5.6722-1.7552 0-3.2197-2.4358-3.5567-5.6722 1.056-.5782 2.2681-.9073 3.5567-.9073z" fill="#fce28b"/><path d="m43.9136 83.032c2.3535 0 4.4839.9546 6.0263 2.4988 1.5424 1.5436 2.4962 3.6763 2.4962 6.0315 0 .6768-.0787 1.3352-.2277 1.9665-.759-.0405-1.5068-.0896-2.2424-.1473.1728-.5764.2655-1.187.2655-1.8197 0-1.7463-.7073-3.3269-1.8506-4.4716-1.1433-1.1442-2.723-1.8521-4.4678-1.8521s-3.3245.7079-4.4678 1.8521c-1.087 1.088-1.7799 2.5708-1.8451 4.2154-.7663-.2225-1.4866-.458-2.1561-.7052.2209-1.9715 1.1131-3.7399 2.4427-5.0705 1.5428-1.5433 3.6732-2.4979 6.0268-2.4979z" fill="#30065a"/><path d="m43.9137 88.5483c1.6629 0 3.0113 1.3491 3.0113 3.0139 0 .1401-.0099.2783-.0283.4134-2.134-.2508-4.1286-.5768-5.9436-.9655.2592-1.4009 1.4861-2.4618 2.9606-2.4618z" fill="#fac307"/><path d="m43.9136 88.5483c.818 0 1.5594.3265 2.1021.856-.593.8255-1.3188 1.3104-2.1021 1.3104s-1.5091-.4849-2.1021-1.3104c.5426-.5295 1.2841-.856 2.1021-.856z" fill="#fce28b"/><path d="m43.9136 87.445c1.1361 0 2.1641.4611 2.9088 1.2059.7442.7449 1.2049 1.7743 1.2049 2.9109 0 .5719-.1165 1.1168-.3271 1.6116-.8211-.0869-1.6238-.1841-2.4058-.2922.3271-.3427.5282-.8079.5282-1.3194 0-.5273-.2137-1.0056-.5592-1.351-.3456-.3454-.8225-.5597-1.3498-.5597s-1.0043.2139-1.3498.5597c-.3455.3454-.5588.8237-.5588 1.351 0 .2927.0657.5696.1831.8173-.8234-.1536-1.6166-.3193-2.3752-.4967-.0081-.1058-.0121-.213-.0121-.3211 0-1.1366.4607-2.166 1.2049-2.9108.7437-.7444 1.7718-1.2055 2.9079-1.2055z" fill="#30065a"/><path d="m69.8583 79.8541c5.4347 0 10.0132 3.6682 11.399 8.6658-1.2104.6367-2.8139 1.2397-4.7292 1.7841-4.7374 1.3474-11.2433 2.198-18.4683 2.253-.0207-.2851-.0315-.5728-.0315-.8633.0005-6.539 5.2966-11.8396 11.83-11.8396z" fill="#fac307"/><path d="m69.8581 79.8541c1.0969 0 2.1592.1504 3.167.4296.2947 1.0253.4625 2.2083.4625 3.4678 0 3.9187-1.6251 7.0952-3.6295 7.0952-2.0045 0-3.6301-3.1765-3.6301-7.0952 0-1.2595.1683-2.4425.463-3.4678 1.0078-.2797 2.0701-.4296 3.1671-.4296z" fill="#fce28b"/><path d="m69.8581 78.7508c3.5711 0 6.8039 1.4486 9.1444 3.7912 1.739 1.7409 2.9848 3.9749 3.5103 6.4746-.5862.3728-1.2719.7299-2.0471 1.069-.3483-2.3213-1.4389-4.3991-3.0222-5.9837-1.941-1.9427-4.623-3.1446-7.5854-3.1446-2.9623 0-5.6443 1.2019-7.5853 3.1446-1.941 1.9426-3.1419 4.6269-3.1419 7.5918 0 .6656.0608 1.3167.1764 1.949-.6587.0135-1.3232.0207-1.9941.0207-.0796 0-.1588-.0009-.2385-.0009-.0976-.6417-.1484-1.2992-.1484-1.9683 0-3.5742 1.4474-6.8097 3.7879-9.1522 2.3397-2.3426 5.5728-3.7912 9.1439-3.7912z" fill="#30065a"/><path d="m69.8582 84.2672c3.563 0 6.5393 2.5136 7.2555 5.8657-.1916.0577-.3869.1149-.5858.1716-3.7501 1.0668-8.6089 1.822-14.0549 2.1178-.0234-.2395-.0355-.4823-.0355-.7281 0-4.1019 3.3223-7.427 7.4207-7.427z" fill="#fac307"/><path d="m69.8582 84.2672c1.2886 0 2.5007.3291 3.5567.9073-.337 3.2364-1.8015 5.6722-3.5567 5.6722s-3.2197-2.4358-3.5567-5.6722c1.056-.5786 2.2681-.9073 3.5567-.9073z" fill="#fce28b"/><path d="m69.8584 83.1639c2.3536 0 4.484.9546 6.0264 2.4983 1.366 1.3672 2.2703 3.1963 2.4593 5.2331-.6799.2274-1.4042.444-2.1696.6476-.0396-1.6865-.7383-3.2094-1.8487-4.3208-1.1433-1.1442-2.723-1.8521-4.4678-1.8521-1.7449 0-3.3246.7079-4.4678 1.8521-1.1433 1.1443-1.8506 2.7253-1.8506 4.4716 0 .6079.0855 1.1956.2457 1.7517-.7366.0505-1.4843.0928-2.2429.1261-.1355-.6043-.2074-1.2325-.2074-1.8778 0-2.3556.9538-4.4878 2.4962-6.0315 1.5432-1.5437 3.6736-2.4983 6.0272-2.4983z" fill="#30065a"/><path d="m69.8581 88.6802c1.4897 0 2.7261 1.0826 2.9682 2.5042-1.8312.3616-3.8294.6611-5.9557.8871-.0153-.1238-.0234-.2494-.0234-.3773-.0005-1.6648 1.348-3.014 3.0109-3.014z" fill="#fac307"/><path d="m69.8582 88.6802c.8179 0 1.5594.3265 2.102.8561-.593.825-1.3187 1.3104-2.102 1.3104-.7838 0-1.5091-.485-2.1021-1.3104.5426-.53 1.2841-.8561 2.1021-.8561z" fill="#fce28b"/><path d="m69.8581 87.577c1.1356 0 2.1641.4606 2.9083 1.2059.7447.7448 1.2049 1.7742 1.2049 2.9113 0 .1288-.0058.2558-.0175.3814-.764.1644-1.5586.3184-2.3815.4598.1246-.254.1948-.5395.1948-.8412 0-.5278-.2137-1.0056-.5592-1.351-.3451-.3454-.8225-.5592-1.3498-.5592s-1.0047.2138-1.3498.5592c-.3455.3454-.5593.8237-.5593 1.351 0 .503.1944.9609.5116 1.3018-.7842.0987-1.5873.1874-2.4076.2653-.1988-.4832-.3086-1.0123-.3086-1.5671 0-1.1366.4603-2.166 1.2049-2.9113.7442-.7453 1.7727-1.2059 2.9088-1.2059z" fill="#30065a"/><path d="m57.0749 81.8233c5.9161 0 10.8177 4.3464 11.6914 10.0231l-.0207.0027-.1768.023-.1111.0144-.018.0022-.1643.0207-.0157.0018-.117.0144-.1273.0158-.1989.0239-.1327.0157-.1678.0194-.1301.0148-.188.0208-.1503.0166-.0976.0108-.2237.0234-.103.0109-.2317.0238-.081.0077-.1809.0175-.1709.0163-.1692.0157-.1444.0135-.1503.0135-.1512.0135-.1867.0163-.1318.0112-.203.0167-.1021.0081-.2322.018-.0971.0072-.2381.018-.0895.0063-.2529.018-.0197.0014-.0279.0018-.261.0175-.0396.0027-.0094.0005-.0158.0009-.2511.0157-.0863.0055-.2511.0148-.0796.0045-.2551.0144-.0936.005-.2686.0139-.0468.0023-.283.0135-.0239.0009-.0288.0014-.2465.0108-.1157.0049-.2578.0108-.027.0009-.0369.0014-.251.0094-.0968.0036-.2546.009-.0846.0027c-.0972.0032-.1948.0063-.2925.009l-.022.0005c-.1003.0032-.2016.0059-.3024.0081l-.0274.0009h-.0117c-.1048.0027-.2097.005-.3145.0077l-.0189.0004h-.0032l-.0121.0005c-.2151.0045-.431.0085-.647.0117l-.0558.0009-.2862.0036-.0809.0009-.2803.0022-.0711.0005c-.0995.0009-.1994.0013-.2992.0018h-.0275c-.1107.0004-.2213.0009-.332.0009-.1121 0-.2241-.0005-.3361-.0009h-.0234c-.1062-.0005-.2124-.0009-.3186-.0018l-.0522-.0005c-.0967-.0009-.193-.0013-.2897-.0022l-.0927-.0009-.2542-.0032-.0293-.0004h-.0058l-.0383-.0005-.2915-.0049-.0247-.0005c-.0999-.0018-.1994-.0036-.2988-.0058l-.085-.0018c-.0981-.0018-.1958-.0045-.2934-.0068l-.0184-.0004c-.1071-.0027-.2147-.0054-.3217-.0086l-.0113-.0004-.0238-.001-.2524-.0076-.1004-.0032-.2479-.0085-.1161-.0041-.2614-.0099-.0562-.0022-.2875-.0117h-.0005l-.0166-.0009-.0626-.0027-.2069-.0095-.0914-.004-.2609-.0127-.0851-.0045-.2555-.0135-.0977-.0054-.2425-.0135-.1233-.0072-.1493-.009-.1656-.0099-.1953-.0126-.1251-.0081-.0094-.0005-.1867-.0126-.0126-.0009-.1395-.0099-.2214-.0157-.1012-.0072-.1692-.0127-.1574-.0121-.1584-.0126-.1507-.0122-.1832-.0148-.1714-.0145-.0468-.004c-.1026-.009-.2051-.0176-.3073-.027l-.0535-.005c-.104-.0094-.2074-.0189-.3109-.0283l-.0239-.0023-.1741-.0167-.1795-.0175-.1525-.0153-.0261-.0027-.1782-.018-.135-.014-.0918-.0095-.2605-.0279-.0621-.0067c-.4027-.0446-.8008-.0915-1.1941-.141l-.0076-.0009c-.2853-.036-.5678-.0734-.8477-.1121.9026-5.6451 5.7892-9.9596 11.6833-9.9596zm3.0087 10.6972-.3024.0081c.1013-.0022.2016-.0049.3024-.0081zm-5.2219.0086-.3217-.0086c.1071.0032.2142.0059.3217.0086z" fill="#fac307"/><path d="m57.0749 81.8233c1.0969 0 2.1592.15 3.167.4296.2947 1.0254.4626 2.2083.4626 3.4679 0 3.2593-1.1244 6.0049-2.656 6.8362-.2443.0018-.4895.0031-.7351.0031-.4095 0-.8162-.0027-1.2212-.0076-1.527-.8376-2.6469-3.5791-2.6469-6.8317 0-1.2596.1683-2.4425.4625-3.4679 1.0083-.2796 2.0702-.4296 3.1671-.4296z" fill="#fce28b"/><path d="m57.0747 80.72c3.5711 0 6.8038 1.4487 9.1444 3.7908 2.1479 2.1498 3.5436 5.0525 3.7587 8.2785-.7127.105-1.4439.2009-2.1912.2882-.1467-2.732-1.3138-5.1925-3.1261-7.0068-1.941-1.9427-4.623-3.1446-7.5853-3.1446-2.9624 0-5.6444 1.2015-7.5854 3.1446-1.8002 1.8017-2.9632 4.2406-3.123 6.9501-.7473-.0919-1.4784-.1927-2.1893-.3022.2304-3.1976 1.6215-6.0738 3.7533-8.2078 2.3401-2.3421 5.5728-3.7908 9.1439-3.7908z" fill="#30065a"/><path d="m57.0748 86.236c1.2886 0 2.5007.3287 3.5567.9073-.2722 2.6146-1.2805 4.7063-2.5831 5.4137-.2443.0018-.4895.0032-.7351.0032-.409 0-.8162-.0027-1.2207-.0077-1.2985-.7119-2.3027-2.8-2.574-5.4087 1.0555-.5787 2.2676-.9078 3.5562-.9078z" fill="#fce28b"/><path d="m57.0748 85.1327c2.3536 0 4.484.9547 6.0264 2.4983 1.4636 1.4649 2.3972 3.4598 2.4885 5.6726-.7207.0644-1.455.1203-2.2001.168-.0495-1.6702-.746-3.1779-1.8474-4.2802-1.1433-1.1443-2.723-1.8522-4.4678-1.8522s-3.3245.7079-4.4678 1.8522c-1.0942 1.0951-1.7894 2.5906-1.8465 4.2482-.7451-.0518-1.4789-.1117-2.1988-.1801.1021-2.1953 1.033-4.1735 2.4867-5.6289 1.5428-1.5428 3.6737-2.4979 6.0268-2.4979z" fill="#30065a"/><path d="m57.0749 90.649c1.2616 0 2.3415.7763 2.7896 1.8773-.8396.0221-1.6904.0338-2.5511.0338-1.0218 0-2.0305-.0162-3.0226-.0473.4517-1.0938 1.5279-1.8638 2.7841-1.8638z" fill="#fac307"/><path d="m57.075 90.649c.8179 0 1.5594.3265 2.102.856-.3374.4697-.718.8291-1.1279 1.052-.2448.0018-.4896.0031-.7357.0031-.4094 0-.8166-.0027-1.2215-.0076-.4063-.2229-.7838-.5805-1.119-1.047.5426-.53 1.2841-.8565 2.1021-.8565z" fill="#fce28b"/><path d="m57.075 89.5458c1.1356 0 2.1642.4606 2.9088 1.2059.7275.7282 1.1838 1.7279 1.204 2.8343-.7262.0293-1.4609.05-2.2042.0626-.0041-.5219-.2164-.9943-.5588-1.3366-.3451-.3458-.8225-.5597-1.3498-.5597s-1.0047.2139-1.3498.5597c-.3401.3405-.5525.8093-.5588 1.328-.7433-.0166-1.478-.0414-2.2038-.0738.0252-1.0983.4806-2.0904 1.2036-2.814.7446-.7453 1.7732-1.2064 2.9088-1.2064z" fill="#30065a"/><path d="m62.825 56.6503h-2.2046v24.5619c.7662.218 1.5036.5053 2.2046.8543zm-8.8186 0h-2.2046v25.191c.7036-.3152 1.4406-.5687 2.2046-.7547zm4.4093 0h-2.2046v24.0981c.2857-.0189.5736-.0284.8638-.0284.4527 0 .8999.0235 1.3408.0689z" fill="#fac307"/><path d="m60.6204 64.375v6.4724c.7752-.0748 1.5135-.1752 2.2046-.2977v-5.877c-.6915-.123-1.4299-.2229-2.2046-.2977zm-3.307-.1553c.3721 0 .7397.0058 1.1023.0166v6.7489c-.3626.0108-.7302.0166-1.1023.0166s-.7397-.0058-1.1023-.0166v-6.7489c.3626-.0108.7302-.0166 1.1023-.0166zm-3.307 6.6272c-.7752-.0747-1.5136-.1747-2.2046-.2976v-5.8771c.691-.1225 1.4294-.2229 2.2046-.2976z" fill="#fce28b"/><path d="m62.825 56.6503h-2.2046v5.4713c.1475.0487.296.0933.4458.1338.5728.1535 1.1631.244 1.7588.2684zm-4.4093 4.3402c-.3923-.2855-.7617-.6084-1.1023-.9673-.3406.3589-.71.6822-1.1023.9673v-4.3402h2.2046zm-4.4093 1.1311c-.1476.0487-.296.0933-.4459.1338-.5727.1535-1.163.244-1.7587.2684v-5.8735h2.2046z" fill="#a6842a"/><path d="m62.8248 56.6503h2.2047v27.0089h-.566c-.5197-.3629-1.0668-.6885-1.6387-.9726zm-13.2279 0h2.2047v25.8116c-.7451.3332-1.4528.7353-2.1151 1.1973h-.0896zm4.4093 0h2.2047v24.7182c-.7546.05-1.4911.1644-2.2047.3382zm4.4093 0h2.2047v25.1825c-.7118-.2027-1.4483-.3459-2.2047-.4238z" fill="#30065a"/><path d="m47.4463 58.1675c-.6308-.363-.8486-1.1691-.486-1.8004.3627-.6313 1.168-.8493 1.7988-.4863 1.2958.7488 2.7748.9001 4.1187.5394 1.3426-.3602 2.5466-1.2298 3.2926-2.5231.3626-.6313 1.168-.8493 1.7988-.4863.2119.122.3766.2936.4891.4922.7464 1.2906 1.9486 2.1579 3.2894 2.5177 1.3439.3602 2.8229.2089 4.1187-.5395.6308-.3629 1.4366-.145 1.7988.4864.3626.6313.1448 1.4378-.486 1.8003-1.9293 1.115-4.1245 1.3419-6.114.8088-1.4074-.3774-2.7136-1.1366-3.7529-2.2322-1.0393 1.0956-2.3455 1.8548-3.7529 2.2322-1.9886.5327-4.1838.3053-6.1131-.8092z" fill="#30065a"/><path d="m49.5968 68.9822c-15.3043 5.0201-30.8201 9.8817-45.88777 15.3363-1.03349.3742-1.42043 1.9251-.86432 3.4643.55611 1.5391 1.84516 2.4834 2.87865 2.1092 14.65054-5.6289 29.25794-11.4051 43.87344-17.1398z" fill="#b30f68"/><path d="m49.597 68.9822c-4.727 1.5504-9.4737 3.086-14.2214 4.6283.2893.7273.5116 1.5004.6641 2.3079 4.5195-1.7756 9.0382-3.553 13.5573-5.3264zm-37.1718 12.2571c-2.91872 1.0082-5.82571 2.0327-8.71605 3.0792-.3172.1148-.57321.3404-.75993.6426.04049.1846.09358.3711.16107.557.55612 1.5392 1.84516 2.4835 2.87865 2.1093 2.83095-1.0875 5.66056-2.1809 8.48876-3.2783-.8539-.9353-1.5567-1.9822-2.0525-3.1098z" fill="#ff1564"/><path d="m49.5968 68.9822c-5.1458 1.6878-10.3159 3.358-15.4843 5.0385.1179.5098.2083 1.0353.2713 1.5725 5.0775-1.6513 10.1563-3.2918 15.213-4.9489zm-37.1717 12.2575c-2.91874 1.0078-5.82573 2.0323-8.71607 3.0788-1.03349.3742-1.42043 1.9255-.86432 3.4643.09314.2571.20652.4976.3361.7187-.20742-1.2573.20472-2.3853 1.06543-2.697 2.96143-1.0722 5.94046-2.1214 8.93156-3.1531-.2866-.4539-.5386-.9254-.7527-1.4117z" fill="#ffa3c2"/><path d="m50.8678 67.4074c-4.1218 1.3564-8.2769 2.705-12.436 4.0546-11.7531 3.8142-23.5394 7.6391-35.09582 11.8226l-.00135-.0041c-.88186.3193-1.47487 1.0866-1.71963 2.0683-.20697.8308-.15883 1.8323.19392 2.8091.35319.9762.95655 1.7773 1.64629 2.283.81572.5976 1.76147.8079 2.64378.4886l.01485-.0099c11.52406-4.4275 22.98326-8.9315 34.44026-13.4342 3.4379-1.3509 6.8758-2.7023 10.3142-4.051v-2.361c-3.7034 1.4523-7.4068 2.9077-11.1097 4.3631-11.4723 4.509-22.9464 9.0184-34.40784 13.422l-.00135-.0036c-.15118.055-.36669-.0202-.59301-.1859-.35139-.2576-.67084-.6985-.87421-1.2609-.20337-.5629-.23981-1.106-.13408-1.5293.06794-.272.18537-.4679.337-.5228l-.00135-.004c11.49164-4.16 23.27794-7.985 35.03104-11.7992 3.9207-1.2725 7.8377-2.5438 11.7539-3.8308v-2.3146z" fill="#30065a"/><path d="m58.5056 76.1093c-18.3994-.362-37.0615-1.1929-55.42989-1.0911-1.09917.0059-1.98283 1.3379-1.97384 2.9743.009 1.6365.90751 2.9586 2.00669 2.9523 18.46734-.462 36.94684-1.1366 55.41414-1.7049.5809-.0031 1.0474-.707 1.0425-1.5716-.0045-.8637-.4787-1.5621-1.0596-1.559z" fill="#b30f68"/><path d="m58.5056 76.1093c-7.826-.154-15.6993-.3927-23.5776-.6088.0063.1796.0095.3607.0095.5422 0 .7187-.0495 1.422-.1476 2.1038 8.1037-.2634 16.2069-.5332 24.3078-.7822.1508-.0009.2939-.0491.423-.1351-.1305-.6493-.5368-1.1226-1.0151-1.1199zm-46.5622-1.0735c-2.9619-.0262-5.91838-.0338-8.86722-.0176-.54486.0031-1.03708.3323-1.39343.8628-.0036.0779-.0054.1567-.00495.236.009 1.6364.90751 2.9585 2.00669 2.9522 2.67887-.0671 5.35775-.1387 8.03711-.2134-.0716-.4571-.1094-.9227-.1094-1.3947-.0009-.8321.1161-1.6436.3312-2.4253z" fill="#ff1564"/><path d="m58.5057 76.1093c-8.0106-.1576-16.0706-.4044-24.1342-.6237.0643.5165.103 1.0452.116 1.5833 8.0281.2189 16.0522.4638 24.0272.621.3869-.0022.727.3076.912.7705.0899-.2324.1408-.503.139-.7912-.0045-.8646-.4792-1.563-1.06-1.5599zm-46.5623-1.0735c-2.96188-.0257-5.91836-.0338-8.8672-.0171-1.09917.0058-1.98284 1.3378-1.97384 2.9743.00135.2738.0279.5381.07604.7898.22497-1.2541.99119-2.1786 1.90635-2.1835 2.8494-.0158 5.70555-.0091 8.56705.0148.0513-.5377.1499-1.0641.2916-1.5783z" fill="#ffa3c2"/><path d="m58.4996 75.01c-6.0808-.1197-12.2385-.2922-18.4043-.4651-12.351-.3463-24.7362-.6935-37.02514-.6251v-.004c-.9381.0049-1.75338.5291-2.312637 1.3721-.473325.7124-.76352944 1.6729-.75768036 2.7109.00584908 1.0379.30640136 1.9953.78737536 2.7032.568712.8367 1.389382 1.3519 2.327482 1.3464l.0171-.0045c12.3402-.3084 24.6444-.7106 36.9468-1.1127 6.1596-.2013 12.3186-.4026 18.4759-.5921.6695-.0131 1.2414-.3756 1.6256-.9547.3046-.4589.4913-1.0695.4877-1.7216-.0036-.652-.197-1.2604-.5066-1.7161-.3973-.5845-.9826-.9443-1.6616-.9407zm-18.4615 1.7328c6.106.1712 12.2039.3418 18.3198.463.0643.1094.1044.2724.1053.4692s-.0369.3602-.1004.4706c-6.1149.1882-12.2313.3881-18.3481.5881-12.3186.4026-24.6385.8051-36.91215 1.1123v-.0041c-.16062.0009-.33879-.1418-.49627-.3738-.24521-.3607-.39819-.883-.40179-1.4815-.00314-.5985.14398-1.1222.38514-1.4856.15478-.2332.33115-.3782.49223-.3796v-.004c12.22004-.0676 24.60574.2792 36.95624.6254z" fill="#30065a"/><path d="m83.8804 71.8894c-5.4721 2.7456-8.6891 9.5003-5.5297 14.2556 3.159 4.7557 11.4984 5.7113 16.9705 2.9657 5.4718-2.7455 6.0038-8.1529 2.8453-12.9086-3.1589-4.7558-8.8141-7.0583-14.2861-4.3127z" fill="#413e77"/><path d="m79.4319 82.8636.0202.0198 2.9223-2.9248c.2803.1445.4247.2193.705.3638-.7531.7458-1.0681 1.4708-1.2755 2.0436-1.1244 3.108.9489 5.9067 4.7994 4.1672.7199.0801 1.4789.0662 2.2456-.0162 1.0708 4.0564 10.3803-.9835 10.1283-5.1359-.0953-1.0744-.4274-2.1858-.9786-3.2855-.2101-.4196-.4607-.8492-.7504-1.2851-1.4952-2.2507-3.59-3.8966-5.9445-4.6077-2.1669-.6543-4.5672-.5178-6.933.6692-.4036.2027-.8053.4377-1.2022.7016-.8782.5845-1.6706 1.2838-2.3518 2.0597-2.1236 2.9698-1.9967 4.1726-.112 3.6786-.1782 1.0155-.4751 1.9553-.6533 2.9708z" fill="#60547c"/><path d="m81.8772 78.4064c-1.0227.6916-1.959 1.5621-2.7036 2.5483-.6839.9056-1.2328 1.9543-1.4803 3.0675-.1485.6687-.1408 1.3541.0076 2.0219.2295 1.0312.782 1.9855 1.5262 2.7303s1.6976 1.2978 2.7279 1.5274c.6673.1486 1.3521.1563 2.0202.0077 1.1122-.2477 2.1601-.7971 3.0649-1.4815.9854-.7453 1.8551-1.6824 2.5462-2.706.3487-.5165.2114-1.2208-.3046-1.5693-.5165-.349-1.2193-.2117-1.568.3053-.5525.8182-1.2454 1.5702-2.0337 2.1665-.6425.4858-1.3984.9078-2.1903 1.0843-.3469.0775-.7032.0694-1.0496-.0077-.6124-.1364-1.1739-.4863-1.6144-.9271-.4405-.4409-.7901-1.0029-.9264-1.6158-.0769-.3467-.085-.7034-.0076-1.0506.1763-.7921.5979-1.5486 1.0834-2.1921.5952-.7889 1.3471-1.4824 2.1646-2.0349.5161-.349.6533-1.0524.305-1.5694-.3478-.5165-1.0514-.6538-1.5675-.3048z" fill="#30065a"/><path d="m26.6749 87.2244c-6.3183 0-12.9903-5.1264-12.9903-11.4501 0-6.3238 6.672-11.4501 12.9903-11.4501 6.3184 0 9.8904 5.1263 9.8904 11.4501 0 6.3237-3.572 11.4501-9.8904 11.4501z" fill="#413e77"/><path d="m13.9794 73.4844c1.3547-5.2268 7.1611-9.1607 12.6961-9.1607 4.8583 0 8.0933 3.031 9.3284 7.3072.1718.5953-1.2067-.5237-1.1136.1153.9426 2.6794-1.0776 5.0462-4.0327 2.343 5.894 7.7904-1.3039 11.9319-6.8889 5.8356-.6929 0 .9818 1.9359.625 2.5402-2.3383 3.9619-10.6984-3.1968-10.6143-8.9806z" fill="#60547c"/><path d="m28.4746 73.7483c1.1086.9042 2.1196 1.9769 2.9511 3.1418.7113.9966 1.3462 2.1368 1.689 3.3179.2416.8318.2362 1.7265-.0549 2.5448-.175.4922-.4512.9497-.8211 1.3194-.3338.3337-.7401.5935-1.195.7254-.5332.1549-1.0893.1167-1.6094-.0689-1.0506-.3746-2.0494-1.0924-2.8764-1.8296-1.0749-.9592-2.0269-2.1048-2.8143-3.3098-.341-.5215-1.0425-.6683-1.5635-.3269-.521.3413-.6677 1.0429-.3266 1.5648.8958 1.3708 1.9806 2.6699 3.203 3.761 1.0497.9367 2.2955 1.7968 3.6278 2.2719.9687.3454 1.9968.3913 2.9862.1035.8188-.2382 1.5549-.6889 2.1574-1.291.6096-.6093 1.0722-1.3573 1.361-2.1692.449-1.2617.4621-2.6402.0895-3.9226-.4143-1.4262-1.1558-2.7938-2.0156-3.9984-.9485-1.3289-2.1021-2.5528-3.3669-3.584-.4818-.3932-1.1932-.3189-1.5851.1634-.3918.4823-.3176 1.1934.1638 1.5865z" fill="#30065a"/><g fill="#fff"><path d="m74.3113 98.7583c.7716.7722.323 2.4727-1.0016 3.7987s-3.0239 1.775-3.7956 1.002c-.7716-.772-.323-2.473 1.0016-3.7983 1.3246-1.3262 3.0244-1.7747 3.7956-1.0024z"/><path d="m72.6759 104.12c.2817.282.1179.902-.3653 1.386-.4837.483-1.1033.647-1.3849.365-.2817-.281-.1179-.902.3653-1.386.4833-.483 1.1033-.647 1.3849-.365z"/><path d="m31.1971 95.207c-.5004.5008-.2097 1.6032.6492 2.4628.8589.8597 1.9604 1.1506 2.4607.6498.5003-.5007.2092-1.6031-.6493-2.4628-.8589-.8592-1.9603-1.1501-2.4606-.6498z"/><path d="m32.2571 98.683c-.1826.1828-.0765.585.2371.8988.3132.3135.7154.4202.8976.2369.1827-.1828.0765-.5849-.2371-.8984-.3131-.3138-.7149-.4201-.8976-.2373z"/></g><path d="m100.071 80.8281h-.8624c-.3388-.8844-.8121-1.7675-1.4128-2.6289-1.4141-2.026-3.3038-3.6066-5.4523-4.5415v.0023c0 .8061-1.8595 1.459-4.1528 1.459-2.2937 0-4.1533-.6534-4.1533-1.459 0-.1126.0365-.222.1048-.3274-.4512.1545-.9034.3387-1.3538.5539-2.0125.9614-3.734 2.4141-4.9798 4.1006 1.0686-2.6952 3.2755-5.1453 6.0718-6.548 5.4716-2.7456 11.1263-.4427 14.2857 4.3131 1.1023 1.6594 1.7547 3.398 1.9049 5.0759z" fill="#b5b0c6"/><path d="m84.371 72.872c-.4036.2026-.8054.4377-1.2023.7016-1.9967 1.3284-3.5499 3.249-4.3584 5.3218-.7806 2.0012-.8553 4.1334.0648 5.9702.1084.2166.2389.4404.3928.6719 1.3484 2.03 3.8235 3.2846 6.591 3.7682 3.0271.5291 6.3606.1328 8.9711-1.1771.3707-.186.7262-.3931 1.0654-.6187 1.6868-1.1227 2.6551-2.5826 2.9817-4.1835.3339-1.6359.0153-3.4485-.8778-5.2308-.2101-.4197-.4607-.8493-.7505-1.2852-1.4951-2.2507-3.59-3.8966-5.9444-4.6076-2.1673-.6543-4.5677-.5179-6.9334.6692zm-2.4166-1.1339c.4477-.2977.9264-.576 1.4348-.8313 2.9079-1.459 5.8666-1.6243 8.5433-.816 2.853.8615 5.3721 2.8271 7.1502 5.5038.324.4876.6178.9952.8796 1.518 1.1127 2.2218 1.5007 4.5261 1.0677 6.6529-.441 2.1624-1.7155 4.1123-3.9206 5.5794-.3901.2594-.8225.5093-1.2981.748-3.0339 1.522-6.8713 1.9885-10.3317 1.3842-3.3223-.5804-6.3359-2.1498-8.0465-4.7247-.1877-.2828-.3618-.5849-.522-.9042-1.2206-2.4366-1.1464-5.2007-.1507-7.7544.9683-2.4821 2.8197-4.776 5.194-6.3557z" fill="#30065a"/><path d="m36.4738 73.5992h-.4787c-.8886-3.0499-2.7972-5.4623-5.5877-6.5876.0378.0793.058.1608.058.2441 0 .806-1.8591 1.459-4.1528 1.459s-4.1529-.6534-4.1529-1.459c0-.0356.0036-.0707.0108-.1058-3.2106 1.1771-6.0511 3.5192-7.489 6.4498h-.8297c1.0677-5.5055 7.0909-9.7254 12.8239-9.7254 5.7321-.0005 9.2037 4.2194 9.7981 9.7249z" fill="#b5b0c6"/><path d="m26.6749 88.3276c-3.5261 0-7.1471-1.4698-9.8233-3.8286-2.5551-2.252-4.2698-5.3222-4.2698-8.7248s1.7147-6.4728 4.2698-8.7248c2.6757-2.3588 6.2972-3.8286 9.8233-3.8286 3.3889 0 6.0777 1.3366 7.9597 3.5152 1.9797 2.2921 3.033 5.5024 3.033 9.0382 0 3.5359-1.0533 6.7457-3.033 9.0383-1.882 2.1786-4.5708 3.5151-7.9597 3.5151zm-8.3678-5.4835c2.2906 2.0188 5.3758 3.277 8.3678 3.277 2.7009 0 4.8264-1.0448 6.2977-2.7483 1.6256-1.8823 2.4903-4.5819 2.4903-7.5986 0-3.0166-.8647-5.7167-2.4903-7.5986-1.4713-1.7035-3.5972-2.7482-6.2977-2.7482-2.992 0-6.0772 1.2581-8.3678 3.2769-2.1065 1.8566-3.5207 4.3496-3.5207 7.0704.0005 2.7203 1.4142 5.2128 3.5207 7.0694z" fill="#30065a"/><path d="m83.5046 45.4659c-1.9806-1.4653-4.5218-2.1408-6.9635-2.1408-2.4422 0-4.983.6755-6.9636 2.1408-.278.2058-.647.1999-.9187-.0149-.2718-.2148-.3627-.5719-.2272-.8911 1.3817-3.25 4.5703-5.3673 8.1095-5.3673 1.2449 0 2.4467.262 3.5418.7434v-.0004c.6016.2558.9683.3972 1.9586.3972.9907 0 2.4588-.4846 3.347-1.2807-.4895 1.2104-1.4366 2.1862-2.6267 2.7131.7892.7872 1.4357 1.7301 1.8888 2.7947.1354.3188.0445.6763-.2272.8911-.2718.2148-.6403.2207-.9188.0149zm-38.4554 0c-1.9806-1.4653-4.5218-2.1408-6.9636-2.1408-2.4417 0-4.9829.6755-6.9635 2.1408-.2785.2058-.647.1999-.9188-.0149-.2717-.2148-.3631-.5719-.2272-.8911.4527-1.0646 1.0992-2.008 1.8884-2.7947-1.1901-.5264-2.1372-1.5027-2.6267-2.7131.8882.7961 2.0607 1.2807 3.347 1.2807.6952 0 1.357-.1414 1.9586-.3972v.0004c1.0951-.4814 2.2968-.7439 3.5418-.7439 3.5391 0 6.7278 2.1174 8.1095 5.3673.1354.3188.0446.6764-.2272.8912-.2713.2152-.6398.2211-.9183.0153z" fill="#30065a"/></g></g></svg>