<svg height="74.985" viewBox="0 0 240 74.985" width="240" xmlns="http://www.w3.org/2000/svg" xmlns:xlink="http://www.w3.org/1999/xlink"><clipPath id="a"><path d="m0-45.015h240v-74.985h-240z" transform="translate(0 120)"/></clipPath><g clip-path="url(#a)" fill="#c9ff00"><path d="m-12.452-38.377a10.727 10.727 0 0 0 3.808-5.913 35 35 0 0 0 1.08-9.318 23.15 23.15 0 0 0 -2.2-10.307 32.243 32.243 0 0 0 -5.745-8.185l-4.577-4.9q-1.794-1.868-3-3.277a9.973 9.973 0 0 1 -1.814-3.044 11.86 11.86 0 0 1 -.6-4.082 17.424 17.424 0 0 1 .494-4.558 4.79 4.79 0 0 1 1.593-2.618 4.626 4.626 0 0 1 2.893-.842 3.32 3.32 0 0 1 2.838 1.245 7.85 7.85 0 0 1 1.245 3.716 51.149 51.149 0 0 1 .311 6.206v4.354h7.616v-3.845a62.153 62.153 0 0 0 -.421-7.579 18.2 18.2 0 0 0 -1.653-5.876 8.571 8.571 0 0 0 -3.625-3.789 13.084 13.084 0 0 0 -6.316-1.318q-5.016 0-7.78 1.922a9.855 9.855 0 0 0 -3.826 5.456 29.659 29.659 0 0 0 -1.062 8.476 17.553 17.553 0 0 0 1.1 6.407 20.269 20.269 0 0 0 2.819 5.053 45.854 45.854 0 0 0 3.588 4.137l4.32 4.357a22.886 22.886 0 0 1 4.449 6.023 16.318 16.318 0 0 1 1.517 7.27 43.4 43.4 0 0 1 -.311 5.8 5.464 5.464 0 0 1 -1.318 3.2 4.324 4.324 0 0 1 -3.131.989 3.887 3.887 0 0 1 -4.064-2.783q-.952-2.782-.952-9.226v-6.517h-7.762v6.151a53.14 53.14 0 0 0 .531 7.853 18.731 18.731 0 0 0 1.9 6.1 9.5 9.5 0 0 0 3.886 3.939 13.3 13.3 0 0 0 6.421 1.373q5.016 0 7.744-2.05m31.924-.073a11.609 11.609 0 0 0 4.045-6.389 39.659 39.659 0 0 0 1.209-10.636v-28.633a45.335 45.335 0 0 0 -.567-7.524 16.876 16.876 0 0 0 -1.959-5.73 9.347 9.347 0 0 0 -3.9-3.661 14.008 14.008 0 0 0 -6.389-1.282q-5.163 0-8.055 2.252a11.894 11.894 0 0 0 -4.059 6.316 34.975 34.975 0 0 0 -1.172 9.629v28.632a38.063 38.063 0 0 0 1.263 10.636 11.784 11.784 0 0 0 4.137 6.39 12.755 12.755 0 0 0 7.744 2.123 12.59 12.59 0 0 0 7.707-2.123m-10.928-5.969a7.027 7.027 0 0 1 -1.483-3.826 52.286 52.286 0 0 1 -.385-7.155v-29.184a22.949 22.949 0 0 1 1.08-8.146 4.083 4.083 0 0 1 4.155-2.654 3.686 3.686 0 0 1 3.881 2.691 28.081 28.081 0 0 1 .879 8.146v29.147a52.476 52.476 0 0 1 -.384 7.14 7.263 7.263 0 0 1 -1.446 3.844 3.938 3.938 0 0 1 -3.076 1.172 4.2 4.2 0 0 1 -3.222-1.172m31.925 7.356v-30.681l11.607 30.681h8.425l-12.563-32.622 11.717-31.818h-8.129l-11.13 30.5v-30.5h-8.019v64.44zm45.748 0v-6.74h-11.9v-22.88h11.094v-6.7h-11.094v-21.382h11.716v-6.738h-19.732v64.44zm26.86 0v-6.7h-12.009v-57.74h-8.019v64.44z" transform="translate(126.924 106.808)"/><path d="m-14.487-30.948a4.008 4.008 0 0 0 3.052-1.358l2.306-2.649.2-.2a2.215 2.215 0 0 1 3.053.2l2.715 3.055a3.014 3.014 0 0 0 2.035.951h14.058a4.687 4.687 0 0 0 4.687-4.687 4.687 4.687 0 0 0 -4.687-4.687h-9.026a2.745 2.745 0 0 1 -2.035-.95l-2.712-3.055a2.165 2.165 0 0 0 -1.628-.747h-.131a2.206 2.206 0 0 0 -1.56.679l-3.26 3.396a2.367 2.367 0 0 1 -1.628.679h-6.139a14.06 14.06 0 0 1 -14.06-14.06 14.06 14.06 0 0 1 14.06-14.06h19.446a4.008 4.008 0 0 0 3.052-1.359l2.306-2.649.2-.2a2.214 2.214 0 0 1 3.053.2l2.713 3.056a3.014 3.014 0 0 0 2.035.951h10.512a37.413 37.413 0 0 0 -29.258-14.058 37.492 37.492 0 0 0 -37.492 37.492 37.36 37.36 0 0 0 2.736 14.06z" transform="translate(38.62 82.5)"/><path d="m-26.213-2.854a2.745 2.745 0 0 1 -2.035-.95l-2.713-3.057a2.165 2.165 0 0 0 -1.628-.747h-.136a2.206 2.206 0 0 0 -1.56.679l-3.256 3.4a2.367 2.367 0 0 1 -1.628.679h-15.511a4.687 4.687 0 0 0 -4.687 4.687 4.687 4.687 0 0 0 4.687 4.682h10.073a4.005 4.005 0 0 0 3.052-1.359l2.306-2.649.2-.2a2.214 2.214 0 0 1 3.053.2l2.713 3.057a3.017 3.017 0 0 0 2.035.951h4.685a14.06 14.06 0 0 1 14.063 14.059 14.06 14.06 0 0 1 -14.06 14.06h-18.4a2.744 2.744 0 0 1 -2.035-.951l-2.713-3.056a2.165 2.165 0 0 0 -1.628-.747h-.136a2.206 2.206 0 0 0 -1.56.679l-3.256 3.4a2.367 2.367 0 0 1 -1.628.679h-11.962a37.413 37.413 0 0 0 29.258 14.058 37.492 37.492 0 0 0 37.492-37.495 37.375 37.375 0 0 0 -2.736-14.059z" transform="translate(78.113 26.287)"/></g></svg>