<svg width="424" height="201" viewBox="0 0 424 201" fill="none" xmlns="http://www.w3.org/2000/svg">
<g clip-path="url(#clip0_1447_10071)">
<path d="M417.863 100.174C414.752 143.043 306.57 161.322 237.83 162.728C236.283 162.728 233.945 163.009 233.805 161.867C233.646 160.619 236.107 160.549 237.812 160.478C297.589 158.598 363.64 149.054 400.199 122.391C457.656 72.0172 318.188 41.0654 240.642 40.7666C238.128 40.6963 233.734 41.1884 233.998 39.2902C234.209 37.6908 238.322 38.429 240.782 38.4817C308.75 39.9405 414.699 57.8507 417.881 100.174H417.863Z" fill="#F6FCF6"/>
<path d="M236.616 168.475C230.254 168.475 228.478 165.312 228.127 162.622C227.881 160.795 228.408 159.019 229.568 157.613C231.73 155.03 235.105 154.871 237.337 154.766H237.548C331.053 151.796 375.644 133.13 396.63 117.909C411.078 105.148 408.108 97.2038 407.123 94.5849C397.263 68.2557 307.976 46.7424 240.624 46.4787C240.061 46.4787 239.587 46.4787 239.094 46.4787C236.089 46.5139 232.345 46.549 229.92 43.8247C228.654 42.3835 228.057 40.4677 228.32 38.5343C229.181 31.9256 236.634 32.4705 239.428 32.6638C239.956 32.699 240.465 32.7341 240.905 32.7517C280.416 33.5954 323.144 39.4834 355.168 48.4824C398.933 60.7858 421.958 78.0457 423.575 99.7523L423.61 100.174L423.575 100.596C421.975 122.549 398.581 140.019 354.008 152.516C321.334 161.673 277.938 167.649 237.952 168.458H237.864H237.776C237.565 168.458 237.337 168.458 237.091 168.458C236.933 168.458 236.774 168.458 236.616 168.458V168.475Z" fill="#F6FCF6"/>
<path d="M6.13794 100.842C9.24893 57.9738 117.431 39.6945 186.171 38.2884C187.718 38.2884 190.056 38.0072 190.196 39.1497C190.354 40.3976 187.894 40.4679 186.189 40.5382C126.412 42.4188 60.3606 51.9627 23.8021 78.6259C-33.6547 128.999 105.813 159.951 183.359 160.25C185.873 160.32 190.267 159.828 190.003 161.726C189.792 163.326 185.679 162.588 183.219 162.535C115.251 161.076 9.30166 143.166 6.12036 100.842H6.13794Z" fill="#F6FCF6"/>
<path d="M186.91 168.44C185.996 168.44 185.17 168.387 184.572 168.335C184.045 168.3 183.535 168.264 183.096 168.247C143.567 167.403 100.857 161.515 68.8327 152.516C25.0679 140.213 2.04304 122.97 0.426022 101.264L0.390869 100.842L0.426022 100.42C2.02546 78.4674 25.4194 60.9966 69.9928 48.4999C102.667 39.3427 146.063 33.3668 186.049 32.5583H186.137H186.224C186.435 32.5583 186.664 32.5583 186.91 32.5583C193.606 32.4001 195.505 35.6517 195.874 38.4112C196.12 40.2391 195.593 42.0319 194.433 43.438C192.271 46.0217 188.896 46.1799 186.664 46.2853H186.453C92.9473 49.2557 48.3564 67.9217 27.3704 83.1427C12.9227 95.9031 15.8931 103.848 16.8774 106.466C26.7377 132.796 116.025 154.309 183.377 154.573C183.94 154.573 184.414 154.573 184.906 154.573C187.912 154.537 191.656 154.502 194.081 157.227C195.347 158.668 195.944 160.584 195.68 162.517C194.995 167.702 190.267 168.493 186.91 168.493V168.44Z" fill="#F6FCF6"/>
<path d="M211.984 194.787C213.12 194.787 214.041 152.577 214.041 100.508C214.041 48.4391 213.12 6.229 211.984 6.229C210.848 6.229 209.928 48.4391 209.928 100.508C209.928 152.577 210.848 194.787 211.984 194.787Z" fill="#F6FCF6"/>
<path d="M211.985 200.499C206.132 200.499 205.868 195.384 205.464 187.668C205.218 182.87 204.989 176.015 204.796 167.297C204.409 149.44 204.198 125.73 204.198 100.508C204.198 75.2859 204.409 51.5756 204.796 33.7181C204.989 25.0003 205.218 18.1456 205.464 13.3473C205.868 5.61371 206.132 0.516602 211.985 0.516602C217.837 0.516602 218.101 5.63129 218.505 13.3473C218.751 18.1456 218.98 25.0003 219.173 33.7181C219.56 51.558 219.771 75.2859 219.771 100.508C219.771 125.73 219.56 149.458 219.173 167.297C218.98 176.015 218.751 182.87 218.505 187.668C218.101 195.402 217.837 200.499 211.985 200.499Z" fill="#F6FCF6"/>
<path d="M211.99 102.565C264.059 102.565 306.269 101.644 306.269 100.509C306.269 99.3728 264.059 98.4521 211.99 98.4521C159.921 98.4521 117.711 99.3728 117.711 100.509C117.711 101.644 159.921 102.565 211.99 102.565Z" fill="#F6FCF6"/>
<path d="M211.984 108.295C186.762 108.295 163.034 108.084 145.194 107.698C136.477 107.504 129.622 107.276 124.824 107.03C117.09 106.625 111.993 106.362 111.993 100.509C111.993 94.656 117.108 94.3924 124.824 93.9881C129.622 93.7421 136.477 93.5136 145.194 93.3202C163.034 92.9336 186.762 92.7227 211.984 92.7227C237.206 92.7227 260.916 92.9336 278.774 93.3202C287.492 93.5136 294.346 93.7421 299.145 93.9881C306.878 94.3924 311.975 94.656 311.975 100.509C311.975 106.362 306.861 106.625 299.145 107.03C294.346 107.276 287.492 107.504 278.774 107.698C260.934 108.084 237.206 108.295 211.984 108.295Z" fill="#F6FCF6"/>
</g>
<defs>
<clipPath id="clip0_1447_10071">
<rect width="423.218" height="200" fill="white" transform="translate(0.390869 0.5)"/>
</clipPath>
</defs>
</svg>
